<?xml version="1.0" encoding="UTF-8"?><svg xmlns="http://www.w3.org/2000/svg" xmlns:xlink="http://www.w3.org/1999/xlink" contentScriptType="application/ecmascript" contentStyleType="text/css" height="346px" preserveAspectRatio="none" style="width:4959px;height:346px;" version="1.1" viewBox="0 0 4959 346" width="4959px" zoomAndPan="magnify">
    <defs>
        <filter height="300%" id="fpkd72fwh2rnk" width="300%" x="-1" y="-1">
            <feGaussianBlur result="blurOut" stdDeviation="2.0"/>
            <feColorMatrix in="blurOut" result="blurOut2" type="matrix" values="0 0 0 0 0 0 0 0 0 0 0 0 0 0 0 0 0 0 .4 0"/>
            <feOffset dx="4.0" dy="4.0" in="blurOut2" result="blurOut3"/>
            <feBlend in="SourceGraphic" in2="blurOut3" mode="normal"/>
        </filter>
    </defs>
    <g>
        <!--cluster soft252git-->
        <polygon fill="#FFFFFF" filter="url(#fpkd72fwh2rnk)" points="22,24,104,24,111,46.4883,4462,46.4883,4462,339,22,339,22,24" style="stroke: #000000; stroke-width: 2.0;"/>
        <line style="stroke: #000000; stroke-width: 2.0;" x1="22" x2="111" y1="46.4883" y2="46.4883"/>
        <text fill="#000000" font-family="sans-serif" font-size="14" font-weight="bold" lengthAdjust="spacingAndGlyphs" textLength="76" x="26" y="39.5352">soft252git</text>
        <!--cluster java.lang-->
        <polygon fill="#FFFFFF" filter="url(#fpkd72fwh2rnk)" points="4486,132,4555,132,4562,154.4883,4600,154.4883,4600,231,4486,231,4486,132" style="stroke: #000000; stroke-width: 2.0;"/>
        <line style="stroke: #000000; stroke-width: 2.0;" x1="4486" x2="4562" y1="154.4883" y2="154.4883"/>
        <text fill="#000000" font-family="sans-serif" font-size="14" font-weight="bold" lengthAdjust="spacingAndGlyphs" textLength="63" x="4490" y="147.5352">java.lang</text>
        <!--cluster java.io-->
        <polygon fill="#FFFFFF" filter="url(#fpkd72fwh2rnk)" points="4624,132,4676,132,4683,154.4883,4818,154.4883,4818,231,4624,231,4624,132" style="stroke: #000000; stroke-width: 2.0;"/>
        <line style="stroke: #000000; stroke-width: 2.0;" x1="4624" x2="4683" y1="154.4883" y2="154.4883"/>
        <text fill="#000000" font-family="sans-serif" font-size="14" font-weight="bold" lengthAdjust="spacingAndGlyphs" textLength="46" x="4628" y="147.5352">java.io</text>
        <!--cluster java.util-->
        <polygon fill="#FFFFFF" filter="url(#fpkd72fwh2rnk)" points="4842,132,4905,132,4912,154.4883,4952,154.4883,4952,231,4842,231,4842,132" style="stroke: #000000; stroke-width: 2.0;"/>
        <line style="stroke: #000000; stroke-width: 2.0;" x1="4842" x2="4912" y1="154.4883" y2="154.4883"/>
        <text fill="#000000" font-family="sans-serif" font-size="14" font-weight="bold" lengthAdjust="spacingAndGlyphs" textLength="57" x="4846" y="147.5352">java.util</text>
        <!--class soft252git.Page-->
        <rect fill="#FEFECE" filter="url(#fpkd72fwh2rnk)" height="48" style="stroke: #A80036; stroke-width: 1.5;" width="60" x="2470" y="167"/>
        <ellipse cx="2485" cy="183" fill="#A9DCDF" rx="11" ry="11" style="stroke: #A80036; stroke-width: 1.0;"/>
        <path d="M2485.1133,178.5981 L2483.9595,183.6699 L2486.2754,183.6699 Z M2483.6191,176.3569 L2486.6157,176.3569 L2489.9609,188.75 L2487.5122,188.75 L2486.7485,185.687 L2483.4697,185.687 L2482.7227,188.75 L2480.2739,188.75 Z "/>
        <text fill="#000000" font-family="sans-serif" font-size="12" font-style="italic" lengthAdjust="spacingAndGlyphs" textLength="28" x="2499" y="187.5352">Page</text>
        <line style="stroke: #A80036; stroke-width: 1.5;" x1="2471" x2="2529" y1="199" y2="199"/>
        <line style="stroke: #A80036; stroke-width: 1.5;" x1="2471" x2="2529" y1="207" y2="207"/>
        <!--class soft252git.AccountVeiwer-->
        <rect fill="#FEFECE" filter="url(#fpkd72fwh2rnk)" height="48" style="stroke: #A80036; stroke-width: 1.5;" width="116" x="2514" y="59"/>
        <ellipse cx="2529" cy="75" fill="#ADD1B2" rx="11" ry="11" style="stroke: #A80036; stroke-width: 1.0;"/>
        <path d="M2531.4731,81.1431 Q2530.8921,81.4419 2530.2529,81.5913 Q2529.6138,81.7407 2528.9082,81.7407 Q2526.4014,81.7407 2525.0815,80.0889 Q2523.7617,78.437 2523.7617,75.3159 Q2523.7617,72.1865 2525.0815,70.5347 Q2526.4014,68.8828 2528.9082,68.8828 Q2529.6138,68.8828 2530.2612,69.0322 Q2530.9087,69.1816 2531.4731,69.4805 L2531.4731,72.2031 Q2530.8423,71.6221 2530.2488,71.3523 Q2529.6553,71.0825 2529.0244,71.0825 Q2527.6797,71.0825 2526.9949,72.1492 Q2526.3101,73.2158 2526.3101,75.3159 Q2526.3101,77.4077 2526.9949,78.4744 Q2527.6797,79.541 2529.0244,79.541 Q2529.6553,79.541 2530.2488,79.2712 Q2530.8423,79.0015 2531.4731,78.4204 Z "/>
        <text fill="#000000" font-family="sans-serif" font-size="12" lengthAdjust="spacingAndGlyphs" textLength="84" x="2543" y="79.5352">AccountVeiwer</text>
        <line style="stroke: #A80036; stroke-width: 1.5;" x1="2515" x2="2629" y1="91" y2="91"/>
        <line style="stroke: #A80036; stroke-width: 1.5;" x1="2515" x2="2629" y1="99" y2="99"/>
        <!--class soft252git.Adminhome-->
        <rect fill="#FEFECE" filter="url(#fpkd72fwh2rnk)" height="48" style="stroke: #A80036; stroke-width: 1.5;" width="101" x="2377.5" y="59"/>
        <ellipse cx="2392.5" cy="75" fill="#ADD1B2" rx="11" ry="11" style="stroke: #A80036; stroke-width: 1.0;"/>
        <path d="M2394.9731,81.1431 Q2394.3921,81.4419 2393.7529,81.5913 Q2393.1138,81.7407 2392.4082,81.7407 Q2389.9014,81.7407 2388.5815,80.0889 Q2387.2617,78.437 2387.2617,75.3159 Q2387.2617,72.1865 2388.5815,70.5347 Q2389.9014,68.8828 2392.4082,68.8828 Q2393.1138,68.8828 2393.7612,69.0322 Q2394.4087,69.1816 2394.9731,69.4805 L2394.9731,72.2031 Q2394.3423,71.6221 2393.7488,71.3523 Q2393.1553,71.0825 2392.5244,71.0825 Q2391.1797,71.0825 2390.4949,72.1492 Q2389.8101,73.2158 2389.8101,75.3159 Q2389.8101,77.4077 2390.4949,78.4744 Q2391.1797,79.541 2392.5244,79.541 Q2393.1553,79.541 2393.7488,79.2712 Q2394.3423,79.0015 2394.9731,78.4204 Z "/>
        <text fill="#000000" font-family="sans-serif" font-size="12" lengthAdjust="spacingAndGlyphs" textLength="69" x="2406.5" y="79.5352">Adminhome</text>
        <line style="stroke: #A80036; stroke-width: 1.5;" x1="2378.5" x2="2477.5" y1="91" y2="91"/>
        <line style="stroke: #A80036; stroke-width: 1.5;" x1="2378.5" x2="2477.5" y1="99" y2="99"/>
        <!--class soft252git.Appointment-->
        <rect fill="#FEFECE" filter="url(#fpkd72fwh2rnk)" height="48" style="stroke: #A80036; stroke-width: 1.5;" width="106" x="38" y="59"/>
        <ellipse cx="53" cy="75" fill="#ADD1B2" rx="11" ry="11" style="stroke: #A80036; stroke-width: 1.0;"/>
        <path d="M55.4731,81.1431 Q54.8921,81.4419 54.2529,81.5913 Q53.6138,81.7407 52.9082,81.7407 Q50.4014,81.7407 49.0815,80.0889 Q47.7617,78.437 47.7617,75.3159 Q47.7617,72.1865 49.0815,70.5347 Q50.4014,68.8828 52.9082,68.8828 Q53.6138,68.8828 54.2612,69.0322 Q54.9087,69.1816 55.4731,69.4805 L55.4731,72.2031 Q54.8423,71.6221 54.2488,71.3523 Q53.6553,71.0825 53.0244,71.0825 Q51.6797,71.0825 50.9949,72.1492 Q50.3101,73.2158 50.3101,75.3159 Q50.3101,77.4077 50.9949,78.4744 Q51.6797,79.541 53.0244,79.541 Q53.6553,79.541 54.2488,79.2712 Q54.8423,79.0015 55.4731,78.4204 Z "/>
        <text fill="#000000" font-family="sans-serif" font-size="12" lengthAdjust="spacingAndGlyphs" textLength="74" x="67" y="79.5352">Appointment</text>
        <line style="stroke: #A80036; stroke-width: 1.5;" x1="39" x2="143" y1="91" y2="91"/>
        <line style="stroke: #A80036; stroke-width: 1.5;" x1="39" x2="143" y1="99" y2="99"/>
        <!--class soft252git.AppointmentMaker-->
        <rect fill="#FEFECE" filter="url(#fpkd72fwh2rnk)" height="48" style="stroke: #A80036; stroke-width: 1.5;" width="142" x="2200" y="59"/>
        <ellipse cx="2215" cy="75" fill="#ADD1B2" rx="11" ry="11" style="stroke: #A80036; stroke-width: 1.0;"/>
        <path d="M2217.4731,81.1431 Q2216.8921,81.4419 2216.2529,81.5913 Q2215.6138,81.7407 2214.9082,81.7407 Q2212.4014,81.7407 2211.0815,80.0889 Q2209.7617,78.437 2209.7617,75.3159 Q2209.7617,72.1865 2211.0815,70.5347 Q2212.4014,68.8828 2214.9082,68.8828 Q2215.6138,68.8828 2216.2612,69.0322 Q2216.9087,69.1816 2217.4731,69.4805 L2217.4731,72.2031 Q2216.8423,71.6221 2216.2488,71.3523 Q2215.6553,71.0825 2215.0244,71.0825 Q2213.6797,71.0825 2212.9949,72.1492 Q2212.3101,73.2158 2212.3101,75.3159 Q2212.3101,77.4077 2212.9949,78.4744 Q2213.6797,79.541 2215.0244,79.541 Q2215.6553,79.541 2216.2488,79.2712 Q2216.8423,79.0015 2217.4731,78.4204 Z "/>
        <text fill="#000000" font-family="sans-serif" font-size="12" lengthAdjust="spacingAndGlyphs" textLength="110" x="2229" y="79.5352">AppointmentMaker</text>
        <line style="stroke: #A80036; stroke-width: 1.5;" x1="2201" x2="2341" y1="91" y2="91"/>
        <line style="stroke: #A80036; stroke-width: 1.5;" x1="2201" x2="2341" y1="99" y2="99"/>
        <!--class soft252git.AppointmentRequester-->
        <rect fill="#FEFECE" filter="url(#fpkd72fwh2rnk)" height="48" style="stroke: #A80036; stroke-width: 1.5;" width="165" x="1999.5" y="59"/>
        <ellipse cx="2014.5" cy="75" fill="#ADD1B2" rx="11" ry="11" style="stroke: #A80036; stroke-width: 1.0;"/>
        <path d="M2016.9731,81.1431 Q2016.3921,81.4419 2015.7529,81.5913 Q2015.1138,81.7407 2014.4082,81.7407 Q2011.9014,81.7407 2010.5815,80.0889 Q2009.2617,78.437 2009.2617,75.3159 Q2009.2617,72.1865 2010.5815,70.5347 Q2011.9014,68.8828 2014.4082,68.8828 Q2015.1138,68.8828 2015.7612,69.0322 Q2016.4087,69.1816 2016.9731,69.4805 L2016.9731,72.2031 Q2016.3423,71.6221 2015.7488,71.3523 Q2015.1553,71.0825 2014.5244,71.0825 Q2013.1797,71.0825 2012.4949,72.1492 Q2011.8101,73.2158 2011.8101,75.3159 Q2011.8101,77.4077 2012.4949,78.4744 Q2013.1797,79.541 2014.5244,79.541 Q2015.1553,79.541 2015.7488,79.2712 Q2016.3423,79.0015 2016.9731,78.4204 Z "/>
        <text fill="#000000" font-family="sans-serif" font-size="12" lengthAdjust="spacingAndGlyphs" textLength="133" x="2028.5" y="79.5352">AppointmentRequester</text>
        <line style="stroke: #A80036; stroke-width: 1.5;" x1="2000.5" x2="2163.5" y1="91" y2="91"/>
        <line style="stroke: #A80036; stroke-width: 1.5;" x1="2000.5" x2="2163.5" y1="99" y2="99"/>
        <!--class soft252git.Data-->
        <rect fill="#FEFECE" filter="url(#fpkd72fwh2rnk)" height="48" style="stroke: #A80036; stroke-width: 1.5;" width="59" x="4386.5" y="59"/>
        <ellipse cx="4401.5" cy="75" fill="#ADD1B2" rx="11" ry="11" style="stroke: #A80036; stroke-width: 1.0;"/>
        <path d="M4403.9731,81.1431 Q4403.3921,81.4419 4402.7529,81.5913 Q4402.1138,81.7407 4401.4082,81.7407 Q4398.9014,81.7407 4397.5815,80.0889 Q4396.2617,78.437 4396.2617,75.3159 Q4396.2617,72.1865 4397.5815,70.5347 Q4398.9014,68.8828 4401.4082,68.8828 Q4402.1138,68.8828 4402.7612,69.0322 Q4403.4087,69.1816 4403.9731,69.4805 L4403.9731,72.2031 Q4403.3423,71.6221 4402.7488,71.3523 Q4402.1553,71.0825 4401.5244,71.0825 Q4400.1797,71.0825 4399.4949,72.1492 Q4398.8101,73.2158 4398.8101,75.3159 Q4398.8101,77.4077 4399.4949,78.4744 Q4400.1797,79.541 4401.5244,79.541 Q4402.1553,79.541 4402.7488,79.2712 Q4403.3423,79.0015 4403.9731,78.4204 Z "/>
        <text fill="#000000" font-family="sans-serif" font-size="12" lengthAdjust="spacingAndGlyphs" textLength="27" x="4415.5" y="79.5352">Data</text>
        <line style="stroke: #A80036; stroke-width: 1.5;" x1="4387.5" x2="4444.5" y1="91" y2="91"/>
        <line style="stroke: #A80036; stroke-width: 1.5;" x1="4387.5" x2="4444.5" y1="99" y2="99"/>
        <!--class soft252git.DoctorAppointmentsVeiwer-->
        <rect fill="#FEFECE" filter="url(#fpkd72fwh2rnk)" height="48" style="stroke: #A80036; stroke-width: 1.5;" width="189" x="1775.5" y="59"/>
        <ellipse cx="1790.5" cy="75" fill="#ADD1B2" rx="11" ry="11" style="stroke: #A80036; stroke-width: 1.0;"/>
        <path d="M1792.9731,81.1431 Q1792.3921,81.4419 1791.7529,81.5913 Q1791.1138,81.7407 1790.4082,81.7407 Q1787.9014,81.7407 1786.5815,80.0889 Q1785.2617,78.437 1785.2617,75.3159 Q1785.2617,72.1865 1786.5815,70.5347 Q1787.9014,68.8828 1790.4082,68.8828 Q1791.1138,68.8828 1791.7612,69.0322 Q1792.4087,69.1816 1792.9731,69.4805 L1792.9731,72.2031 Q1792.3423,71.6221 1791.7488,71.3523 Q1791.1553,71.0825 1790.5244,71.0825 Q1789.1797,71.0825 1788.4949,72.1492 Q1787.8101,73.2158 1787.8101,75.3159 Q1787.8101,77.4077 1788.4949,78.4744 Q1789.1797,79.541 1790.5244,79.541 Q1791.1553,79.541 1791.7488,79.2712 Q1792.3423,79.0015 1792.9731,78.4204 Z "/>
        <text fill="#000000" font-family="sans-serif" font-size="12" lengthAdjust="spacingAndGlyphs" textLength="157" x="1804.5" y="79.5352">DoctorAppointmentsVeiwer</text>
        <line style="stroke: #A80036; stroke-width: 1.5;" x1="1776.5" x2="1963.5" y1="91" y2="91"/>
        <line style="stroke: #A80036; stroke-width: 1.5;" x1="1776.5" x2="1963.5" y1="99" y2="99"/>
        <!--class soft252git.DoctorHistoryVeiwer-->
        <rect fill="#FEFECE" filter="url(#fpkd72fwh2rnk)" height="48" style="stroke: #A80036; stroke-width: 1.5;" width="149" x="1591.5" y="59"/>
        <ellipse cx="1606.5" cy="75" fill="#ADD1B2" rx="11" ry="11" style="stroke: #A80036; stroke-width: 1.0;"/>
        <path d="M1608.9731,81.1431 Q1608.3921,81.4419 1607.7529,81.5913 Q1607.1138,81.7407 1606.4082,81.7407 Q1603.9014,81.7407 1602.5815,80.0889 Q1601.2617,78.437 1601.2617,75.3159 Q1601.2617,72.1865 1602.5815,70.5347 Q1603.9014,68.8828 1606.4082,68.8828 Q1607.1138,68.8828 1607.7612,69.0322 Q1608.4087,69.1816 1608.9731,69.4805 L1608.9731,72.2031 Q1608.3423,71.6221 1607.7488,71.3523 Q1607.1553,71.0825 1606.5244,71.0825 Q1605.1797,71.0825 1604.4949,72.1492 Q1603.8101,73.2158 1603.8101,75.3159 Q1603.8101,77.4077 1604.4949,78.4744 Q1605.1797,79.541 1606.5244,79.541 Q1607.1553,79.541 1607.7488,79.2712 Q1608.3423,79.0015 1608.9731,78.4204 Z "/>
        <text fill="#000000" font-family="sans-serif" font-size="12" lengthAdjust="spacingAndGlyphs" textLength="117" x="1620.5" y="79.5352">DoctorHistoryVeiwer</text>
        <line style="stroke: #A80036; stroke-width: 1.5;" x1="1592.5" x2="1739.5" y1="91" y2="91"/>
        <line style="stroke: #A80036; stroke-width: 1.5;" x1="1592.5" x2="1739.5" y1="99" y2="99"/>
        <!--class soft252git.DoctorPrescriptionWriter-->
        <rect fill="#FEFECE" filter="url(#fpkd72fwh2rnk)" height="48" style="stroke: #A80036; stroke-width: 1.5;" width="172" x="1384" y="59"/>
        <ellipse cx="1399" cy="75" fill="#ADD1B2" rx="11" ry="11" style="stroke: #A80036; stroke-width: 1.0;"/>
        <path d="M1401.4731,81.1431 Q1400.8921,81.4419 1400.2529,81.5913 Q1399.6138,81.7407 1398.9082,81.7407 Q1396.4014,81.7407 1395.0815,80.0889 Q1393.7617,78.437 1393.7617,75.3159 Q1393.7617,72.1865 1395.0815,70.5347 Q1396.4014,68.8828 1398.9082,68.8828 Q1399.6138,68.8828 1400.2612,69.0322 Q1400.9087,69.1816 1401.4731,69.4805 L1401.4731,72.2031 Q1400.8423,71.6221 1400.2488,71.3523 Q1399.6553,71.0825 1399.0244,71.0825 Q1397.6797,71.0825 1396.9949,72.1492 Q1396.3101,73.2158 1396.3101,75.3159 Q1396.3101,77.4077 1396.9949,78.4744 Q1397.6797,79.541 1399.0244,79.541 Q1399.6553,79.541 1400.2488,79.2712 Q1400.8423,79.0015 1401.4731,78.4204 Z "/>
        <text fill="#000000" font-family="sans-serif" font-size="12" lengthAdjust="spacingAndGlyphs" textLength="140" x="1413" y="79.5352">DoctorPrescriptionWriter</text>
        <line style="stroke: #A80036; stroke-width: 1.5;" x1="1385" x2="1555" y1="91" y2="91"/>
        <line style="stroke: #A80036; stroke-width: 1.5;" x1="1385" x2="1555" y1="99" y2="99"/>
        <!--class soft252git.Doctorhome-->
        <rect fill="#FEFECE" filter="url(#fpkd72fwh2rnk)" height="48" style="stroke: #A80036; stroke-width: 1.5;" width="102" x="1247" y="59"/>
        <ellipse cx="1262" cy="75" fill="#ADD1B2" rx="11" ry="11" style="stroke: #A80036; stroke-width: 1.0;"/>
        <path d="M1264.4731,81.1431 Q1263.8921,81.4419 1263.2529,81.5913 Q1262.6138,81.7407 1261.9082,81.7407 Q1259.4014,81.7407 1258.0815,80.0889 Q1256.7617,78.437 1256.7617,75.3159 Q1256.7617,72.1865 1258.0815,70.5347 Q1259.4014,68.8828 1261.9082,68.8828 Q1262.6138,68.8828 1263.2612,69.0322 Q1263.9087,69.1816 1264.4731,69.4805 L1264.4731,72.2031 Q1263.8423,71.6221 1263.2488,71.3523 Q1262.6553,71.0825 1262.0244,71.0825 Q1260.6797,71.0825 1259.9949,72.1492 Q1259.3101,73.2158 1259.3101,75.3159 Q1259.3101,77.4077 1259.9949,78.4744 Q1260.6797,79.541 1262.0244,79.541 Q1262.6553,79.541 1263.2488,79.2712 Q1263.8423,79.0015 1264.4731,78.4204 Z "/>
        <text fill="#000000" font-family="sans-serif" font-size="12" lengthAdjust="spacingAndGlyphs" textLength="70" x="1276" y="79.5352">Doctorhome</text>
        <line style="stroke: #A80036; stroke-width: 1.5;" x1="1248" x2="1348" y1="91" y2="91"/>
        <line style="stroke: #A80036; stroke-width: 1.5;" x1="1248" x2="1348" y1="99" y2="99"/>
        <!--class soft252git.Feedback-->
        <rect fill="#FEFECE" filter="url(#fpkd72fwh2rnk)" height="48" style="stroke: #A80036; stroke-width: 1.5;" width="88" x="179" y="59"/>
        <ellipse cx="194" cy="75" fill="#ADD1B2" rx="11" ry="11" style="stroke: #A80036; stroke-width: 1.0;"/>
        <path d="M196.4731,81.1431 Q195.8921,81.4419 195.2529,81.5913 Q194.6138,81.7407 193.9082,81.7407 Q191.4014,81.7407 190.0815,80.0889 Q188.7617,78.437 188.7617,75.3159 Q188.7617,72.1865 190.0815,70.5347 Q191.4014,68.8828 193.9082,68.8828 Q194.6138,68.8828 195.2612,69.0322 Q195.9087,69.1816 196.4731,69.4805 L196.4731,72.2031 Q195.8423,71.6221 195.2488,71.3523 Q194.6553,71.0825 194.0244,71.0825 Q192.6797,71.0825 191.9949,72.1492 Q191.3101,73.2158 191.3101,75.3159 Q191.3101,77.4077 191.9949,78.4744 Q192.6797,79.541 194.0244,79.541 Q194.6553,79.541 195.2488,79.2712 Q195.8423,79.0015 196.4731,78.4204 Z "/>
        <text fill="#000000" font-family="sans-serif" font-size="12" lengthAdjust="spacingAndGlyphs" textLength="56" x="208" y="79.5352">Feedback</text>
        <line style="stroke: #A80036; stroke-width: 1.5;" x1="180" x2="266" y1="91" y2="91"/>
        <line style="stroke: #A80036; stroke-width: 1.5;" x1="180" x2="266" y1="99" y2="99"/>
        <!--class soft252git.History-->
        <rect fill="#FEFECE" filter="url(#fpkd72fwh2rnk)" height="48" style="stroke: #A80036; stroke-width: 1.5;" width="72" x="302" y="59"/>
        <ellipse cx="317" cy="75" fill="#ADD1B2" rx="11" ry="11" style="stroke: #A80036; stroke-width: 1.0;"/>
        <path d="M319.4731,81.1431 Q318.8921,81.4419 318.2529,81.5913 Q317.6138,81.7407 316.9082,81.7407 Q314.4014,81.7407 313.0815,80.0889 Q311.7617,78.437 311.7617,75.3159 Q311.7617,72.1865 313.0815,70.5347 Q314.4014,68.8828 316.9082,68.8828 Q317.6138,68.8828 318.2612,69.0322 Q318.9087,69.1816 319.4731,69.4805 L319.4731,72.2031 Q318.8423,71.6221 318.2488,71.3523 Q317.6553,71.0825 317.0244,71.0825 Q315.6797,71.0825 314.9949,72.1492 Q314.3101,73.2158 314.3101,75.3159 Q314.3101,77.4077 314.9949,78.4744 Q315.6797,79.541 317.0244,79.541 Q317.6553,79.541 318.2488,79.2712 Q318.8423,79.0015 319.4731,78.4204 Z "/>
        <text fill="#000000" font-family="sans-serif" font-size="12" lengthAdjust="spacingAndGlyphs" textLength="40" x="331" y="79.5352">History</text>
        <line style="stroke: #A80036; stroke-width: 1.5;" x1="303" x2="373" y1="91" y2="91"/>
        <line style="stroke: #A80036; stroke-width: 1.5;" x1="303" x2="373" y1="99" y2="99"/>
        <!--class soft252git.Login-->
        <rect fill="#FEFECE" filter="url(#fpkd72fwh2rnk)" height="48" style="stroke: #A80036; stroke-width: 1.5;" width="62" x="1150" y="59"/>
        <ellipse cx="1165" cy="75" fill="#ADD1B2" rx="11" ry="11" style="stroke: #A80036; stroke-width: 1.0;"/>
        <path d="M1167.4731,81.1431 Q1166.8921,81.4419 1166.2529,81.5913 Q1165.6138,81.7407 1164.9082,81.7407 Q1162.4014,81.7407 1161.0815,80.0889 Q1159.7617,78.437 1159.7617,75.3159 Q1159.7617,72.1865 1161.0815,70.5347 Q1162.4014,68.8828 1164.9082,68.8828 Q1165.6138,68.8828 1166.2612,69.0322 Q1166.9087,69.1816 1167.4731,69.4805 L1167.4731,72.2031 Q1166.8423,71.6221 1166.2488,71.3523 Q1165.6553,71.0825 1165.0244,71.0825 Q1163.6797,71.0825 1162.9949,72.1492 Q1162.3101,73.2158 1162.3101,75.3159 Q1162.3101,77.4077 1162.9949,78.4744 Q1163.6797,79.541 1165.0244,79.541 Q1165.6553,79.541 1166.2488,79.2712 Q1166.8423,79.0015 1167.4731,78.4204 Z "/>
        <text fill="#000000" font-family="sans-serif" font-size="12" lengthAdjust="spacingAndGlyphs" textLength="30" x="1179" y="79.5352">Login</text>
        <line style="stroke: #A80036; stroke-width: 1.5;" x1="1151" x2="1211" y1="91" y2="91"/>
        <line style="stroke: #A80036; stroke-width: 1.5;" x1="1151" x2="1211" y1="99" y2="99"/>
        <!--class soft252git.MedStockVeiwer-->
        <rect fill="#FEFECE" filter="url(#fpkd72fwh2rnk)" height="48" style="stroke: #A80036; stroke-width: 1.5;" width="126" x="989" y="59"/>
        <ellipse cx="1004" cy="75" fill="#ADD1B2" rx="11" ry="11" style="stroke: #A80036; stroke-width: 1.0;"/>
        <path d="M1006.4731,81.1431 Q1005.8921,81.4419 1005.2529,81.5913 Q1004.6138,81.7407 1003.9082,81.7407 Q1001.4014,81.7407 1000.0815,80.0889 Q998.7617,78.437 998.7617,75.3159 Q998.7617,72.1865 1000.0815,70.5347 Q1001.4014,68.8828 1003.9082,68.8828 Q1004.6138,68.8828 1005.2612,69.0322 Q1005.9087,69.1816 1006.4731,69.4805 L1006.4731,72.2031 Q1005.8423,71.6221 1005.2488,71.3523 Q1004.6553,71.0825 1004.0244,71.0825 Q1002.6797,71.0825 1001.9949,72.1492 Q1001.3101,73.2158 1001.3101,75.3159 Q1001.3101,77.4077 1001.9949,78.4744 Q1002.6797,79.541 1004.0244,79.541 Q1004.6553,79.541 1005.2488,79.2712 Q1005.8423,79.0015 1006.4731,78.4204 Z "/>
        <text fill="#000000" font-family="sans-serif" font-size="12" lengthAdjust="spacingAndGlyphs" textLength="94" x="1018" y="79.5352">MedStockVeiwer</text>
        <line style="stroke: #A80036; stroke-width: 1.5;" x1="990" x2="1114" y1="91" y2="91"/>
        <line style="stroke: #A80036; stroke-width: 1.5;" x1="990" x2="1114" y1="99" y2="99"/>
        <!--class soft252git.Medicine-->
        <rect fill="#FEFECE" filter="url(#fpkd72fwh2rnk)" height="48" style="stroke: #A80036; stroke-width: 1.5;" width="83" x="409.5" y="59"/>
        <ellipse cx="424.5" cy="75" fill="#ADD1B2" rx="11" ry="11" style="stroke: #A80036; stroke-width: 1.0;"/>
        <path d="M426.9731,81.1431 Q426.3921,81.4419 425.7529,81.5913 Q425.1138,81.7407 424.4082,81.7407 Q421.9014,81.7407 420.5815,80.0889 Q419.2617,78.437 419.2617,75.3159 Q419.2617,72.1865 420.5815,70.5347 Q421.9014,68.8828 424.4082,68.8828 Q425.1138,68.8828 425.7612,69.0322 Q426.4087,69.1816 426.9731,69.4805 L426.9731,72.2031 Q426.3423,71.6221 425.7488,71.3523 Q425.1553,71.0825 424.5244,71.0825 Q423.1797,71.0825 422.4949,72.1492 Q421.8101,73.2158 421.8101,75.3159 Q421.8101,77.4077 422.4949,78.4744 Q423.1797,79.541 424.5244,79.541 Q425.1553,79.541 425.7488,79.2712 Q426.3423,79.0015 426.9731,78.4204 Z "/>
        <text fill="#000000" font-family="sans-serif" font-size="12" lengthAdjust="spacingAndGlyphs" textLength="51" x="438.5" y="79.5352">Medicine</text>
        <line style="stroke: #A80036; stroke-width: 1.5;" x1="410.5" x2="491.5" y1="91" y2="91"/>
        <line style="stroke: #A80036; stroke-width: 1.5;" x1="410.5" x2="491.5" y1="99" y2="99"/>
        <!--class soft252git.MedicineRequestWindow-->
        <rect fill="#FEFECE" filter="url(#fpkd72fwh2rnk)" height="48" style="stroke: #A80036; stroke-width: 1.5;" width="174" x="780" y="59"/>
        <ellipse cx="795" cy="75" fill="#ADD1B2" rx="11" ry="11" style="stroke: #A80036; stroke-width: 1.0;"/>
        <path d="M797.4731,81.1431 Q796.8921,81.4419 796.2529,81.5913 Q795.6138,81.7407 794.9082,81.7407 Q792.4014,81.7407 791.0815,80.0889 Q789.7617,78.437 789.7617,75.3159 Q789.7617,72.1865 791.0815,70.5347 Q792.4014,68.8828 794.9082,68.8828 Q795.6138,68.8828 796.2612,69.0322 Q796.9087,69.1816 797.4731,69.4805 L797.4731,72.2031 Q796.8423,71.6221 796.2488,71.3523 Q795.6553,71.0825 795.0244,71.0825 Q793.6797,71.0825 792.9949,72.1492 Q792.3101,73.2158 792.3101,75.3159 Q792.3101,77.4077 792.9949,78.4744 Q793.6797,79.541 795.0244,79.541 Q795.6553,79.541 796.2488,79.2712 Q796.8423,79.0015 797.4731,78.4204 Z "/>
        <text fill="#000000" font-family="sans-serif" font-size="12" lengthAdjust="spacingAndGlyphs" textLength="142" x="809" y="79.5352">MedicineRequestWindow</text>
        <line style="stroke: #A80036; stroke-width: 1.5;" x1="781" x2="953" y1="91" y2="91"/>
        <line style="stroke: #A80036; stroke-width: 1.5;" x1="781" x2="953" y1="99" y2="99"/>
        <!--class soft252git.NewUser-->
        <rect fill="#FEFECE" filter="url(#fpkd72fwh2rnk)" height="48" style="stroke: #A80036; stroke-width: 1.5;" width="83" x="661.5" y="59"/>
        <ellipse cx="676.5" cy="75" fill="#ADD1B2" rx="11" ry="11" style="stroke: #A80036; stroke-width: 1.0;"/>
        <path d="M678.9731,81.1431 Q678.3921,81.4419 677.7529,81.5913 Q677.1138,81.7407 676.4082,81.7407 Q673.9014,81.7407 672.5815,80.0889 Q671.2617,78.437 671.2617,75.3159 Q671.2617,72.1865 672.5815,70.5347 Q673.9014,68.8828 676.4082,68.8828 Q677.1138,68.8828 677.7612,69.0322 Q678.4087,69.1816 678.9731,69.4805 L678.9731,72.2031 Q678.3423,71.6221 677.7488,71.3523 Q677.1553,71.0825 676.5244,71.0825 Q675.1797,71.0825 674.4949,72.1492 Q673.8101,73.2158 673.8101,75.3159 Q673.8101,77.4077 674.4949,78.4744 Q675.1797,79.541 676.5244,79.541 Q677.1553,79.541 677.7488,79.2712 Q678.3423,79.0015 678.9731,78.4204 Z "/>
        <text fill="#000000" font-family="sans-serif" font-size="12" lengthAdjust="spacingAndGlyphs" textLength="51" x="690.5" y="79.5352">NewUser</text>
        <line style="stroke: #A80036; stroke-width: 1.5;" x1="662.5" x2="743.5" y1="91" y2="91"/>
        <line style="stroke: #A80036; stroke-width: 1.5;" x1="662.5" x2="743.5" y1="99" y2="99"/>
        <!--class soft252git.NotesWriter-->
        <rect fill="#FEFECE" filter="url(#fpkd72fwh2rnk)" height="48" style="stroke: #A80036; stroke-width: 1.5;" width="99" x="527.5" y="59"/>
        <ellipse cx="542.5" cy="75" fill="#ADD1B2" rx="11" ry="11" style="stroke: #A80036; stroke-width: 1.0;"/>
        <path d="M544.9731,81.1431 Q544.3921,81.4419 543.7529,81.5913 Q543.1138,81.7407 542.4082,81.7407 Q539.9014,81.7407 538.5815,80.0889 Q537.2617,78.437 537.2617,75.3159 Q537.2617,72.1865 538.5815,70.5347 Q539.9014,68.8828 542.4082,68.8828 Q543.1138,68.8828 543.7612,69.0322 Q544.4087,69.1816 544.9731,69.4805 L544.9731,72.2031 Q544.3423,71.6221 543.7488,71.3523 Q543.1553,71.0825 542.5244,71.0825 Q541.1797,71.0825 540.4949,72.1492 Q539.8101,73.2158 539.8101,75.3159 Q539.8101,77.4077 540.4949,78.4744 Q541.1797,79.541 542.5244,79.541 Q543.1553,79.541 543.7488,79.2712 Q544.3423,79.0015 544.9731,78.4204 Z "/>
        <text fill="#000000" font-family="sans-serif" font-size="12" lengthAdjust="spacingAndGlyphs" textLength="67" x="556.5" y="79.5352">NotesWriter</text>
        <line style="stroke: #A80036; stroke-width: 1.5;" x1="528.5" x2="625.5" y1="91" y2="91"/>
        <line style="stroke: #A80036; stroke-width: 1.5;" x1="528.5" x2="625.5" y1="99" y2="99"/>
        <!--class soft252git.Pagemanager-->
        <rect fill="#FEFECE" filter="url(#fpkd72fwh2rnk)" height="48" style="stroke: #A80036; stroke-width: 1.5;" width="111" x="38.5" y="167"/>
        <ellipse cx="53.5" cy="183" fill="#ADD1B2" rx="11" ry="11" style="stroke: #A80036; stroke-width: 1.0;"/>
        <path d="M55.9731,189.1431 Q55.3921,189.4419 54.7529,189.5913 Q54.1138,189.7407 53.4082,189.7407 Q50.9014,189.7407 49.5815,188.0889 Q48.2617,186.437 48.2617,183.3159 Q48.2617,180.1865 49.5815,178.5347 Q50.9014,176.8828 53.4082,176.8828 Q54.1138,176.8828 54.7612,177.0322 Q55.4087,177.1816 55.9731,177.4805 L55.9731,180.2031 Q55.3423,179.6221 54.7488,179.3523 Q54.1553,179.0825 53.5244,179.0825 Q52.1797,179.0825 51.4949,180.1492 Q50.8101,181.2158 50.8101,183.3159 Q50.8101,185.4077 51.4949,186.4744 Q52.1797,187.541 53.5244,187.541 Q54.1553,187.541 54.7488,187.2712 Q55.3423,187.0015 55.9731,186.4204 Z "/>
        <text fill="#000000" font-family="sans-serif" font-size="12" lengthAdjust="spacingAndGlyphs" textLength="79" x="67.5" y="187.5352">Pagemanager</text>
        <line style="stroke: #A80036; stroke-width: 1.5;" x1="39.5" x2="148.5" y1="199" y2="199"/>
        <line style="stroke: #A80036; stroke-width: 1.5;" x1="39.5" x2="148.5" y1="207" y2="207"/>
        <!--class soft252git.PatientAppointmentsVeiwer-->
        <rect fill="#FEFECE" filter="url(#fpkd72fwh2rnk)" height="48" style="stroke: #A80036; stroke-width: 1.5;" width="190" x="4161" y="59"/>
        <ellipse cx="4176" cy="75" fill="#ADD1B2" rx="11" ry="11" style="stroke: #A80036; stroke-width: 1.0;"/>
        <path d="M4178.4731,81.1431 Q4177.8921,81.4419 4177.2529,81.5913 Q4176.6138,81.7407 4175.9082,81.7407 Q4173.4014,81.7407 4172.0815,80.0889 Q4170.7617,78.437 4170.7617,75.3159 Q4170.7617,72.1865 4172.0815,70.5347 Q4173.4014,68.8828 4175.9082,68.8828 Q4176.6138,68.8828 4177.2612,69.0322 Q4177.9087,69.1816 4178.4731,69.4805 L4178.4731,72.2031 Q4177.8423,71.6221 4177.2488,71.3523 Q4176.6553,71.0825 4176.0244,71.0825 Q4174.6797,71.0825 4173.9949,72.1492 Q4173.3101,73.2158 4173.3101,75.3159 Q4173.3101,77.4077 4173.9949,78.4744 Q4174.6797,79.541 4176.0244,79.541 Q4176.6553,79.541 4177.2488,79.2712 Q4177.8423,79.0015 4178.4731,78.4204 Z "/>
        <text fill="#000000" font-family="sans-serif" font-size="12" lengthAdjust="spacingAndGlyphs" textLength="158" x="4190" y="79.5352">PatientAppointmentsVeiwer</text>
        <line style="stroke: #A80036; stroke-width: 1.5;" x1="4162" x2="4350" y1="91" y2="91"/>
        <line style="stroke: #A80036; stroke-width: 1.5;" x1="4162" x2="4350" y1="99" y2="99"/>
        <!--class soft252git.PatientHistoryVeiwer-->
        <rect fill="#FEFECE" filter="url(#fpkd72fwh2rnk)" height="48" style="stroke: #A80036; stroke-width: 1.5;" width="150" x="3976" y="59"/>
        <ellipse cx="3991" cy="75" fill="#ADD1B2" rx="11" ry="11" style="stroke: #A80036; stroke-width: 1.0;"/>
        <path d="M3993.4731,81.1431 Q3992.8921,81.4419 3992.2529,81.5913 Q3991.6138,81.7407 3990.9082,81.7407 Q3988.4014,81.7407 3987.0815,80.0889 Q3985.7617,78.437 3985.7617,75.3159 Q3985.7617,72.1865 3987.0815,70.5347 Q3988.4014,68.8828 3990.9082,68.8828 Q3991.6138,68.8828 3992.2612,69.0322 Q3992.9087,69.1816 3993.4731,69.4805 L3993.4731,72.2031 Q3992.8423,71.6221 3992.2488,71.3523 Q3991.6553,71.0825 3991.0244,71.0825 Q3989.6797,71.0825 3988.9949,72.1492 Q3988.3101,73.2158 3988.3101,75.3159 Q3988.3101,77.4077 3988.9949,78.4744 Q3989.6797,79.541 3991.0244,79.541 Q3991.6553,79.541 3992.2488,79.2712 Q3992.8423,79.0015 3993.4731,78.4204 Z "/>
        <text fill="#000000" font-family="sans-serif" font-size="12" lengthAdjust="spacingAndGlyphs" textLength="118" x="4005" y="79.5352">PatientHistoryVeiwer</text>
        <line style="stroke: #A80036; stroke-width: 1.5;" x1="3977" x2="4125" y1="91" y2="91"/>
        <line style="stroke: #A80036; stroke-width: 1.5;" x1="3977" x2="4125" y1="99" y2="99"/>
        <!--class soft252git.PatientPrescriptionVeiwer-->
        <rect fill="#FEFECE" filter="url(#fpkd72fwh2rnk)" height="48" style="stroke: #A80036; stroke-width: 1.5;" width="178" x="3763" y="59"/>
        <ellipse cx="3778" cy="75" fill="#ADD1B2" rx="11" ry="11" style="stroke: #A80036; stroke-width: 1.0;"/>
        <path d="M3780.4731,81.1431 Q3779.8921,81.4419 3779.2529,81.5913 Q3778.6138,81.7407 3777.9082,81.7407 Q3775.4014,81.7407 3774.0815,80.0889 Q3772.7617,78.437 3772.7617,75.3159 Q3772.7617,72.1865 3774.0815,70.5347 Q3775.4014,68.8828 3777.9082,68.8828 Q3778.6138,68.8828 3779.2612,69.0322 Q3779.9087,69.1816 3780.4731,69.4805 L3780.4731,72.2031 Q3779.8423,71.6221 3779.2488,71.3523 Q3778.6553,71.0825 3778.0244,71.0825 Q3776.6797,71.0825 3775.9949,72.1492 Q3775.3101,73.2158 3775.3101,75.3159 Q3775.3101,77.4077 3775.9949,78.4744 Q3776.6797,79.541 3778.0244,79.541 Q3778.6553,79.541 3779.2488,79.2712 Q3779.8423,79.0015 3780.4731,78.4204 Z "/>
        <text fill="#000000" font-family="sans-serif" font-size="12" lengthAdjust="spacingAndGlyphs" textLength="146" x="3792" y="79.5352">PatientPrescriptionVeiwer</text>
        <line style="stroke: #A80036; stroke-width: 1.5;" x1="3764" x2="3940" y1="91" y2="91"/>
        <line style="stroke: #A80036; stroke-width: 1.5;" x1="3764" x2="3940" y1="99" y2="99"/>
        <!--class soft252git.PatientRatingsVeiwer-->
        <rect fill="#FEFECE" filter="url(#fpkd72fwh2rnk)" height="48" style="stroke: #A80036; stroke-width: 1.5;" width="152" x="3576" y="59"/>
        <ellipse cx="3591" cy="75" fill="#ADD1B2" rx="11" ry="11" style="stroke: #A80036; stroke-width: 1.0;"/>
        <path d="M3593.4731,81.1431 Q3592.8921,81.4419 3592.2529,81.5913 Q3591.6138,81.7407 3590.9082,81.7407 Q3588.4014,81.7407 3587.0815,80.0889 Q3585.7617,78.437 3585.7617,75.3159 Q3585.7617,72.1865 3587.0815,70.5347 Q3588.4014,68.8828 3590.9082,68.8828 Q3591.6138,68.8828 3592.2612,69.0322 Q3592.9087,69.1816 3593.4731,69.4805 L3593.4731,72.2031 Q3592.8423,71.6221 3592.2488,71.3523 Q3591.6553,71.0825 3591.0244,71.0825 Q3589.6797,71.0825 3588.9949,72.1492 Q3588.3101,73.2158 3588.3101,75.3159 Q3588.3101,77.4077 3588.9949,78.4744 Q3589.6797,79.541 3591.0244,79.541 Q3591.6553,79.541 3592.2488,79.2712 Q3592.8423,79.0015 3593.4731,78.4204 Z "/>
        <text fill="#000000" font-family="sans-serif" font-size="12" lengthAdjust="spacingAndGlyphs" textLength="120" x="3605" y="79.5352">PatientRatingsVeiwer</text>
        <line style="stroke: #A80036; stroke-width: 1.5;" x1="3577" x2="3727" y1="91" y2="91"/>
        <line style="stroke: #A80036; stroke-width: 1.5;" x1="3577" x2="3727" y1="99" y2="99"/>
        <!--class soft252git.Patienthome-->
        <rect fill="#FEFECE" filter="url(#fpkd72fwh2rnk)" height="48" style="stroke: #A80036; stroke-width: 1.5;" width="103" x="3437.5" y="59"/>
        <ellipse cx="3452.5" cy="75" fill="#ADD1B2" rx="11" ry="11" style="stroke: #A80036; stroke-width: 1.0;"/>
        <path d="M3454.9731,81.1431 Q3454.3921,81.4419 3453.7529,81.5913 Q3453.1138,81.7407 3452.4082,81.7407 Q3449.9014,81.7407 3448.5815,80.0889 Q3447.2617,78.437 3447.2617,75.3159 Q3447.2617,72.1865 3448.5815,70.5347 Q3449.9014,68.8828 3452.4082,68.8828 Q3453.1138,68.8828 3453.7612,69.0322 Q3454.4087,69.1816 3454.9731,69.4805 L3454.9731,72.2031 Q3454.3423,71.6221 3453.7488,71.3523 Q3453.1553,71.0825 3452.5244,71.0825 Q3451.1797,71.0825 3450.4949,72.1492 Q3449.8101,73.2158 3449.8101,75.3159 Q3449.8101,77.4077 3450.4949,78.4744 Q3451.1797,79.541 3452.5244,79.541 Q3453.1553,79.541 3453.7488,79.2712 Q3454.3423,79.0015 3454.9731,78.4204 Z "/>
        <text fill="#000000" font-family="sans-serif" font-size="12" lengthAdjust="spacingAndGlyphs" textLength="71" x="3466.5" y="79.5352">Patienthome</text>
        <line style="stroke: #A80036; stroke-width: 1.5;" x1="3438.5" x2="3539.5" y1="91" y2="91"/>
        <line style="stroke: #A80036; stroke-width: 1.5;" x1="3438.5" x2="3539.5" y1="99" y2="99"/>
        <!--class soft252git.Prescription-->
        <rect fill="#FEFECE" filter="url(#fpkd72fwh2rnk)" height="48" style="stroke: #A80036; stroke-width: 1.5;" width="100" x="185" y="167"/>
        <ellipse cx="200" cy="183" fill="#ADD1B2" rx="11" ry="11" style="stroke: #A80036; stroke-width: 1.0;"/>
        <path d="M202.4731,189.1431 Q201.8921,189.4419 201.2529,189.5913 Q200.6138,189.7407 199.9082,189.7407 Q197.4014,189.7407 196.0815,188.0889 Q194.7617,186.437 194.7617,183.3159 Q194.7617,180.1865 196.0815,178.5347 Q197.4014,176.8828 199.9082,176.8828 Q200.6138,176.8828 201.2612,177.0322 Q201.9087,177.1816 202.4731,177.4805 L202.4731,180.2031 Q201.8423,179.6221 201.2488,179.3523 Q200.6553,179.0825 200.0244,179.0825 Q198.6797,179.0825 197.9949,180.1492 Q197.3101,181.2158 197.3101,183.3159 Q197.3101,185.4077 197.9949,186.4744 Q198.6797,187.541 200.0244,187.541 Q200.6553,187.541 201.2488,187.2712 Q201.8423,187.0015 202.4731,186.4204 Z "/>
        <text fill="#000000" font-family="sans-serif" font-size="12" lengthAdjust="spacingAndGlyphs" textLength="68" x="214" y="187.5352">Prescription</text>
        <line style="stroke: #A80036; stroke-width: 1.5;" x1="186" x2="284" y1="199" y2="199"/>
        <line style="stroke: #A80036; stroke-width: 1.5;" x1="186" x2="284" y1="207" y2="207"/>
        <!--class soft252git.PrescriptionFill-->
        <rect fill="#FEFECE" filter="url(#fpkd72fwh2rnk)" height="48" style="stroke: #A80036; stroke-width: 1.5;" width="115" x="3287.5" y="59"/>
        <ellipse cx="3302.5" cy="75" fill="#ADD1B2" rx="11" ry="11" style="stroke: #A80036; stroke-width: 1.0;"/>
        <path d="M3304.9731,81.1431 Q3304.3921,81.4419 3303.7529,81.5913 Q3303.1138,81.7407 3302.4082,81.7407 Q3299.9014,81.7407 3298.5815,80.0889 Q3297.2617,78.437 3297.2617,75.3159 Q3297.2617,72.1865 3298.5815,70.5347 Q3299.9014,68.8828 3302.4082,68.8828 Q3303.1138,68.8828 3303.7612,69.0322 Q3304.4087,69.1816 3304.9731,69.4805 L3304.9731,72.2031 Q3304.3423,71.6221 3303.7488,71.3523 Q3303.1553,71.0825 3302.5244,71.0825 Q3301.1797,71.0825 3300.4949,72.1492 Q3299.8101,73.2158 3299.8101,75.3159 Q3299.8101,77.4077 3300.4949,78.4744 Q3301.1797,79.541 3302.5244,79.541 Q3303.1553,79.541 3303.7488,79.2712 Q3304.3423,79.0015 3304.9731,78.4204 Z "/>
        <text fill="#000000" font-family="sans-serif" font-size="12" lengthAdjust="spacingAndGlyphs" textLength="83" x="3316.5" y="79.5352">PrescriptionFill</text>
        <line style="stroke: #A80036; stroke-width: 1.5;" x1="3288.5" x2="3401.5" y1="91" y2="91"/>
        <line style="stroke: #A80036; stroke-width: 1.5;" x1="3288.5" x2="3401.5" y1="99" y2="99"/>
        <!--class soft252git.Rating-->
        <rect fill="#FEFECE" filter="url(#fpkd72fwh2rnk)" height="48" style="stroke: #A80036; stroke-width: 1.5;" width="68" x="320" y="167"/>
        <ellipse cx="335" cy="183" fill="#ADD1B2" rx="11" ry="11" style="stroke: #A80036; stroke-width: 1.0;"/>
        <path d="M337.4731,189.1431 Q336.8921,189.4419 336.2529,189.5913 Q335.6138,189.7407 334.9082,189.7407 Q332.4014,189.7407 331.0815,188.0889 Q329.7617,186.437 329.7617,183.3159 Q329.7617,180.1865 331.0815,178.5347 Q332.4014,176.8828 334.9082,176.8828 Q335.6138,176.8828 336.2612,177.0322 Q336.9087,177.1816 337.4731,177.4805 L337.4731,180.2031 Q336.8423,179.6221 336.2488,179.3523 Q335.6553,179.0825 335.0244,179.0825 Q333.6797,179.0825 332.9949,180.1492 Q332.3101,181.2158 332.3101,183.3159 Q332.3101,185.4077 332.9949,186.4744 Q333.6797,187.541 335.0244,187.541 Q335.6553,187.541 336.2488,187.2712 Q336.8423,187.0015 337.4731,186.4204 Z "/>
        <text fill="#000000" font-family="sans-serif" font-size="12" lengthAdjust="spacingAndGlyphs" textLength="36" x="349" y="187.5352">Rating</text>
        <line style="stroke: #A80036; stroke-width: 1.5;" x1="321" x2="387" y1="199" y2="199"/>
        <line style="stroke: #A80036; stroke-width: 1.5;" x1="321" x2="387" y1="207" y2="207"/>
        <!--class soft252git.RatingMaker-->
        <rect fill="#FEFECE" filter="url(#fpkd72fwh2rnk)" height="48" style="stroke: #A80036; stroke-width: 1.5;" width="104" x="3148" y="59"/>
        <ellipse cx="3163" cy="75" fill="#ADD1B2" rx="11" ry="11" style="stroke: #A80036; stroke-width: 1.0;"/>
        <path d="M3165.4731,81.1431 Q3164.8921,81.4419 3164.2529,81.5913 Q3163.6138,81.7407 3162.9082,81.7407 Q3160.4014,81.7407 3159.0815,80.0889 Q3157.7617,78.437 3157.7617,75.3159 Q3157.7617,72.1865 3159.0815,70.5347 Q3160.4014,68.8828 3162.9082,68.8828 Q3163.6138,68.8828 3164.2612,69.0322 Q3164.9087,69.1816 3165.4731,69.4805 L3165.4731,72.2031 Q3164.8423,71.6221 3164.2488,71.3523 Q3163.6553,71.0825 3163.0244,71.0825 Q3161.6797,71.0825 3160.9949,72.1492 Q3160.3101,73.2158 3160.3101,75.3159 Q3160.3101,77.4077 3160.9949,78.4744 Q3161.6797,79.541 3163.0244,79.541 Q3163.6553,79.541 3164.2488,79.2712 Q3164.8423,79.0015 3165.4731,78.4204 Z "/>
        <text fill="#000000" font-family="sans-serif" font-size="12" lengthAdjust="spacingAndGlyphs" textLength="72" x="3177" y="79.5352">RatingMaker</text>
        <line style="stroke: #A80036; stroke-width: 1.5;" x1="3149" x2="3251" y1="91" y2="91"/>
        <line style="stroke: #A80036; stroke-width: 1.5;" x1="3149" x2="3251" y1="99" y2="99"/>
        <!--class soft252git.RatingsVeiwer-->
        <rect fill="#FEFECE" filter="url(#fpkd72fwh2rnk)" height="48" style="stroke: #A80036; stroke-width: 1.5;" width="113" x="2999.5" y="59"/>
        <ellipse cx="3014.5" cy="75" fill="#ADD1B2" rx="11" ry="11" style="stroke: #A80036; stroke-width: 1.0;"/>
        <path d="M3016.9731,81.1431 Q3016.3921,81.4419 3015.7529,81.5913 Q3015.1138,81.7407 3014.4082,81.7407 Q3011.9014,81.7407 3010.5815,80.0889 Q3009.2617,78.437 3009.2617,75.3159 Q3009.2617,72.1865 3010.5815,70.5347 Q3011.9014,68.8828 3014.4082,68.8828 Q3015.1138,68.8828 3015.7612,69.0322 Q3016.4087,69.1816 3016.9731,69.4805 L3016.9731,72.2031 Q3016.3423,71.6221 3015.7488,71.3523 Q3015.1553,71.0825 3014.5244,71.0825 Q3013.1797,71.0825 3012.4949,72.1492 Q3011.8101,73.2158 3011.8101,75.3159 Q3011.8101,77.4077 3012.4949,78.4744 Q3013.1797,79.541 3014.5244,79.541 Q3015.1553,79.541 3015.7488,79.2712 Q3016.3423,79.0015 3016.9731,78.4204 Z "/>
        <text fill="#000000" font-family="sans-serif" font-size="12" lengthAdjust="spacingAndGlyphs" textLength="81" x="3028.5" y="79.5352">RatingsVeiwer</text>
        <line style="stroke: #A80036; stroke-width: 1.5;" x1="3000.5" x2="3111.5" y1="91" y2="91"/>
        <line style="stroke: #A80036; stroke-width: 1.5;" x1="3000.5" x2="3111.5" y1="99" y2="99"/>
        <!--class soft252git.Request-->
        <rect fill="#FEFECE" filter="url(#fpkd72fwh2rnk)" height="48" style="stroke: #A80036; stroke-width: 1.5;" width="79" x="423.5" y="167"/>
        <ellipse cx="438.5" cy="183" fill="#ADD1B2" rx="11" ry="11" style="stroke: #A80036; stroke-width: 1.0;"/>
        <path d="M440.9731,189.1431 Q440.3921,189.4419 439.7529,189.5913 Q439.1138,189.7407 438.4082,189.7407 Q435.9014,189.7407 434.5815,188.0889 Q433.2617,186.437 433.2617,183.3159 Q433.2617,180.1865 434.5815,178.5347 Q435.9014,176.8828 438.4082,176.8828 Q439.1138,176.8828 439.7612,177.0322 Q440.4087,177.1816 440.9731,177.4805 L440.9731,180.2031 Q440.3423,179.6221 439.7488,179.3523 Q439.1553,179.0825 438.5244,179.0825 Q437.1797,179.0825 436.4949,180.1492 Q435.8101,181.2158 435.8101,183.3159 Q435.8101,185.4077 436.4949,186.4744 Q437.1797,187.541 438.5244,187.541 Q439.1553,187.541 439.7488,187.2712 Q440.3423,187.0015 440.9731,186.4204 Z "/>
        <text fill="#000000" font-family="sans-serif" font-size="12" lengthAdjust="spacingAndGlyphs" textLength="47" x="452.5" y="187.5352">Request</text>
        <line style="stroke: #A80036; stroke-width: 1.5;" x1="424.5" x2="501.5" y1="199" y2="199"/>
        <line style="stroke: #A80036; stroke-width: 1.5;" x1="424.5" x2="501.5" y1="207" y2="207"/>
        <!--class soft252git.SecretaryHome-->
        <rect fill="#FEFECE" filter="url(#fpkd72fwh2rnk)" height="48" style="stroke: #A80036; stroke-width: 1.5;" width="119" x="2845.5" y="59"/>
        <ellipse cx="2860.5" cy="75" fill="#ADD1B2" rx="11" ry="11" style="stroke: #A80036; stroke-width: 1.0;"/>
        <path d="M2862.9731,81.1431 Q2862.3921,81.4419 2861.7529,81.5913 Q2861.1138,81.7407 2860.4082,81.7407 Q2857.9014,81.7407 2856.5815,80.0889 Q2855.2617,78.437 2855.2617,75.3159 Q2855.2617,72.1865 2856.5815,70.5347 Q2857.9014,68.8828 2860.4082,68.8828 Q2861.1138,68.8828 2861.7612,69.0322 Q2862.4087,69.1816 2862.9731,69.4805 L2862.9731,72.2031 Q2862.3423,71.6221 2861.7488,71.3523 Q2861.1553,71.0825 2860.5244,71.0825 Q2859.1797,71.0825 2858.4949,72.1492 Q2857.8101,73.2158 2857.8101,75.3159 Q2857.8101,77.4077 2858.4949,78.4744 Q2859.1797,79.541 2860.5244,79.541 Q2861.1553,79.541 2861.7488,79.2712 Q2862.3423,79.0015 2862.9731,78.4204 Z "/>
        <text fill="#000000" font-family="sans-serif" font-size="12" lengthAdjust="spacingAndGlyphs" textLength="87" x="2874.5" y="79.5352">SecretaryHome</text>
        <line style="stroke: #A80036; stroke-width: 1.5;" x1="2846.5" x2="2963.5" y1="91" y2="91"/>
        <line style="stroke: #A80036; stroke-width: 1.5;" x1="2846.5" x2="2963.5" y1="99" y2="99"/>
        <!--class soft252git.Soft252Git-->
        <rect fill="#FEFECE" filter="url(#fpkd72fwh2rnk)" height="48" style="stroke: #A80036; stroke-width: 1.5;" width="93" x="47.5" y="275"/>
        <ellipse cx="62.5" cy="291" fill="#ADD1B2" rx="11" ry="11" style="stroke: #A80036; stroke-width: 1.0;"/>
        <path d="M64.9731,297.1431 Q64.3921,297.4419 63.7529,297.5913 Q63.1138,297.7407 62.4082,297.7407 Q59.9014,297.7407 58.5815,296.0889 Q57.2617,294.437 57.2617,291.3159 Q57.2617,288.1865 58.5815,286.5347 Q59.9014,284.8828 62.4082,284.8828 Q63.1138,284.8828 63.7612,285.0322 Q64.4087,285.1816 64.9731,285.4805 L64.9731,288.2031 Q64.3423,287.6221 63.7488,287.3523 Q63.1553,287.0825 62.5244,287.0825 Q61.1797,287.0825 60.4949,288.1492 Q59.8101,289.2158 59.8101,291.3159 Q59.8101,293.4077 60.4949,294.4744 Q61.1797,295.541 62.5244,295.541 Q63.1553,295.541 63.7488,295.2712 Q64.3423,295.0015 64.9731,294.4204 Z "/>
        <text fill="#000000" font-family="sans-serif" font-size="12" lengthAdjust="spacingAndGlyphs" textLength="61" x="76.5" y="295.5352">Soft252Git</text>
        <line style="stroke: #A80036; stroke-width: 1.5;" x1="48.5" x2="139.5" y1="307" y2="307"/>
        <line style="stroke: #A80036; stroke-width: 1.5;" x1="48.5" x2="139.5" y1="315" y2="315"/>
        <!--class soft252git.TerminationWindow-->
        <rect fill="#FEFECE" filter="url(#fpkd72fwh2rnk)" height="48" style="stroke: #A80036; stroke-width: 1.5;" width="145" x="2665.5" y="59"/>
        <ellipse cx="2680.5" cy="75" fill="#ADD1B2" rx="11" ry="11" style="stroke: #A80036; stroke-width: 1.0;"/>
        <path d="M2682.9731,81.1431 Q2682.3921,81.4419 2681.7529,81.5913 Q2681.1138,81.7407 2680.4082,81.7407 Q2677.9014,81.7407 2676.5815,80.0889 Q2675.2617,78.437 2675.2617,75.3159 Q2675.2617,72.1865 2676.5815,70.5347 Q2677.9014,68.8828 2680.4082,68.8828 Q2681.1138,68.8828 2681.7612,69.0322 Q2682.4087,69.1816 2682.9731,69.4805 L2682.9731,72.2031 Q2682.3423,71.6221 2681.7488,71.3523 Q2681.1553,71.0825 2680.5244,71.0825 Q2679.1797,71.0825 2678.4949,72.1492 Q2677.8101,73.2158 2677.8101,75.3159 Q2677.8101,77.4077 2678.4949,78.4744 Q2679.1797,79.541 2680.5244,79.541 Q2681.1553,79.541 2681.7488,79.2712 Q2682.3423,79.0015 2682.9731,78.4204 Z "/>
        <text fill="#000000" font-family="sans-serif" font-size="12" lengthAdjust="spacingAndGlyphs" textLength="113" x="2694.5" y="79.5352">TerminationWindow</text>
        <line style="stroke: #A80036; stroke-width: 1.5;" x1="2666.5" x2="2809.5" y1="91" y2="91"/>
        <line style="stroke: #A80036; stroke-width: 1.5;" x1="2666.5" x2="2809.5" y1="99" y2="99"/>
        <!--class soft252git.User-->
        <rect fill="#FEFECE" filter="url(#fpkd72fwh2rnk)" height="48" style="stroke: #A80036; stroke-width: 1.5;" width="58" x="176" y="275"/>
        <ellipse cx="191" cy="291" fill="#ADD1B2" rx="11" ry="11" style="stroke: #A80036; stroke-width: 1.0;"/>
        <path d="M193.4731,297.1431 Q192.8921,297.4419 192.2529,297.5913 Q191.6138,297.7407 190.9082,297.7407 Q188.4014,297.7407 187.0815,296.0889 Q185.7617,294.437 185.7617,291.3159 Q185.7617,288.1865 187.0815,286.5347 Q188.4014,284.8828 190.9082,284.8828 Q191.6138,284.8828 192.2612,285.0322 Q192.9087,285.1816 193.4731,285.4805 L193.4731,288.2031 Q192.8423,287.6221 192.2488,287.3523 Q191.6553,287.0825 191.0244,287.0825 Q189.6797,287.0825 188.9949,288.1492 Q188.3101,289.2158 188.3101,291.3159 Q188.3101,293.4077 188.9949,294.4744 Q189.6797,295.541 191.0244,295.541 Q191.6553,295.541 192.2488,295.2712 Q192.8423,295.0015 193.4731,294.4204 Z "/>
        <text fill="#000000" font-family="sans-serif" font-size="12" lengthAdjust="spacingAndGlyphs" textLength="26" x="205" y="295.5352">User</text>
        <line style="stroke: #A80036; stroke-width: 1.5;" x1="177" x2="233" y1="307" y2="307"/>
        <line style="stroke: #A80036; stroke-width: 1.5;" x1="177" x2="233" y1="315" y2="315"/>
        <!--class soft252git.ActionListener-->
        <rect fill="#FEFECE" filter="url(#fpkd72fwh2rnk)" height="48" style="stroke: #A80036; stroke-width: 1.5;" width="112" x="2444" y="275"/>
        <ellipse cx="2459" cy="291" fill="#B4A7E5" rx="11" ry="11" style="stroke: #A80036; stroke-width: 1.0;"/>
        <path d="M2455.4277,287.2651 L2455.4277,285.1069 L2462.8071,285.1069 L2462.8071,287.2651 L2460.3418,287.2651 L2460.3418,295.3418 L2462.8071,295.3418 L2462.8071,297.5 L2455.4277,297.5 L2455.4277,295.3418 L2457.8931,295.3418 L2457.8931,287.2651 Z "/>
        <text fill="#000000" font-family="sans-serif" font-size="12" font-style="italic" lengthAdjust="spacingAndGlyphs" textLength="80" x="2473" y="295.5352">ActionListener</text>
        <line style="stroke: #A80036; stroke-width: 1.5;" x1="2445" x2="2555" y1="307" y2="307"/>
        <line style="stroke: #A80036; stroke-width: 1.5;" x1="2445" x2="2555" y1="315" y2="315"/>
        <!--class java.lang.Override-->
        <rect fill="#FEFECE" filter="url(#fpkd72fwh2rnk)" height="48" style="stroke: #A80036; stroke-width: 1.5;" width="82" x="4502" y="167"/>
        <ellipse cx="4517" cy="183" fill="#E3664A" rx="11" ry="11" style="stroke: #A80036; stroke-width: 1.0;"/>
        <path d="M4519.0767,183.2261 Q4519.0767,182.2881 4518.6533,181.7568 Q4518.23,181.2256 4517.4912,181.2256 Q4516.7524,181.2256 4516.3333,181.7568 Q4515.9141,182.2881 4515.9141,183.2261 Q4515.9141,184.1724 4516.3333,184.7036 Q4516.7524,185.2349 4517.4912,185.2349 Q4518.23,185.2349 4518.6533,184.7036 Q4519.0767,184.1724 4519.0767,183.2261 Z M4520.6206,186.6294 L4518.9937,186.6294 L4518.9937,185.9487 Q4518.6782,186.3887 4518.2507,186.592 Q4517.8232,186.7954 4517.2256,186.7954 Q4515.8643,186.7954 4515.03,185.8159 Q4514.1958,184.8364 4514.1958,183.2261 Q4514.1958,181.624 4515.0259,180.6487 Q4515.856,179.6733 4517.2256,179.6733 Q4517.8149,179.6733 4518.2632,179.8767 Q4518.7114,180.0801 4518.9937,180.4702 L4518.9937,180.1299 Q4518.9937,179.001 4518.3752,178.3867 Q4517.7568,177.7725 4516.6113,177.7725 Q4514.8848,177.7725 4513.7932,179.2915 Q4512.7017,180.8105 4512.7017,183.2427 Q4512.7017,185.791 4513.9634,187.2976 Q4515.2251,188.8042 4517.3252,188.8042 Q4517.9893,188.8042 4518.6118,188.6091 Q4519.2344,188.4141 4519.8071,188.0239 L4520.5708,189.4849 Q4519.8984,189.9414 4519.1057,190.1697 Q4518.313,190.3979 4517.4082,190.3979 Q4514.5029,190.3979 4512.7764,188.4639 Q4511.0498,186.5298 4511.0498,183.2427 Q4511.0498,180.0303 4512.6021,178.1003 Q4514.1543,176.1704 4516.7109,176.1704 Q4518.5205,176.1704 4519.5706,177.262 Q4520.6206,178.3535 4520.6206,180.2378 Z "/>
        <text fill="#000000" font-family="sans-serif" font-size="12" lengthAdjust="spacingAndGlyphs" textLength="50" x="4531" y="187.5352">Override</text>
        <line style="stroke: #A80036; stroke-width: 1.5;" x1="4503" x2="4583" y1="199" y2="199"/>
        <line style="stroke: #A80036; stroke-width: 1.5;" x1="4503" x2="4583" y1="207" y2="207"/>
        <!--class java.io.FileNotFoundException-->
        <rect fill="#FEFECE" filter="url(#fpkd72fwh2rnk)" height="48" style="stroke: #A80036; stroke-width: 1.5;" width="162" x="4640" y="167"/>
        <ellipse cx="4655" cy="183" fill="#ADD1B2" rx="11" ry="11" style="stroke: #A80036; stroke-width: 1.0;"/>
        <path d="M4657.4731,189.1431 Q4656.8921,189.4419 4656.2529,189.5913 Q4655.6138,189.7407 4654.9082,189.7407 Q4652.4014,189.7407 4651.0815,188.0889 Q4649.7617,186.437 4649.7617,183.3159 Q4649.7617,180.1865 4651.0815,178.5347 Q4652.4014,176.8828 4654.9082,176.8828 Q4655.6138,176.8828 4656.2612,177.0322 Q4656.9087,177.1816 4657.4731,177.4805 L4657.4731,180.2031 Q4656.8423,179.6221 4656.2488,179.3523 Q4655.6553,179.0825 4655.0244,179.0825 Q4653.6797,179.0825 4652.9949,180.1492 Q4652.3101,181.2158 4652.3101,183.3159 Q4652.3101,185.4077 4652.9949,186.4744 Q4653.6797,187.541 4655.0244,187.541 Q4655.6553,187.541 4656.2488,187.2712 Q4656.8423,187.0015 4657.4731,186.4204 Z "/>
        <text fill="#000000" font-family="sans-serif" font-size="12" lengthAdjust="spacingAndGlyphs" textLength="130" x="4669" y="187.5352">FileNotFoundException</text>
        <line style="stroke: #A80036; stroke-width: 1.5;" x1="4641" x2="4801" y1="199" y2="199"/>
        <line style="stroke: #A80036; stroke-width: 1.5;" x1="4641" x2="4801" y1="207" y2="207"/>
        <!--class java.util.Scanner-->
        <rect fill="#FEFECE" filter="url(#fpkd72fwh2rnk)" height="48" style="stroke: #A80036; stroke-width: 1.5;" width="77" x="4858.5" y="167"/>
        <ellipse cx="4873.5" cy="183" fill="#ADD1B2" rx="11" ry="11" style="stroke: #A80036; stroke-width: 1.0;"/>
        <path d="M4875.9731,189.1431 Q4875.3921,189.4419 4874.7529,189.5913 Q4874.1138,189.7407 4873.4082,189.7407 Q4870.9014,189.7407 4869.5815,188.0889 Q4868.2617,186.437 4868.2617,183.3159 Q4868.2617,180.1865 4869.5815,178.5347 Q4870.9014,176.8828 4873.4082,176.8828 Q4874.1138,176.8828 4874.7612,177.0322 Q4875.4087,177.1816 4875.9731,177.4805 L4875.9731,180.2031 Q4875.3423,179.6221 4874.7488,179.3523 Q4874.1553,179.0825 4873.5244,179.0825 Q4872.1797,179.0825 4871.4949,180.1492 Q4870.8101,181.2158 4870.8101,183.3159 Q4870.8101,185.4077 4871.4949,186.4744 Q4872.1797,187.541 4873.5244,187.541 Q4874.1553,187.541 4874.7488,187.2712 Q4875.3423,187.0015 4875.9731,186.4204 Z "/>
        <text fill="#000000" font-family="sans-serif" font-size="12" lengthAdjust="spacingAndGlyphs" textLength="45" x="4887.5" y="187.5352">Scanner</text>
        <line style="stroke: #A80036; stroke-width: 1.5;" x1="4859.5" x2="4934.5" y1="199" y2="199"/>
        <line style="stroke: #A80036; stroke-width: 1.5;" x1="4859.5" x2="4934.5" y1="207" y2="207"/>
        <path d="M2530.43,191 C3185.76,191 3841.1,191 4496.43,191 " fill="none" style="stroke: #A80036; stroke-width: 1.0; stroke-dasharray: 7.0,7.0;"/>
        <polygon fill="#A80036" points="4501.73,191,4492.73,187,4496.73,191,4492.73,195,4501.73,191" style="stroke: #A80036; stroke-width: 1.0;"/>
        <path d="M2500,215 C2500,226.59 2500,241.03 2500,254.6 " fill="none" style="stroke: #A80036; stroke-width: 1.0;"/>
        <polygon fill="none" points="2507,254.68,2500,274.68,2493,254.68,2507,254.68" style="stroke: #A80036; stroke-width: 1.0;"/>
        <path d="M2556.38,107 C2547.85,119.55 2537.05,135.46 2527.19,149.97 " fill="none" style="stroke: #A80036; stroke-width: 1.0;"/>
        <polygon fill="none" points="2532.87,154.07,2515.84,166.68,2521.29,146.2,2532.87,154.07" style="stroke: #A80036; stroke-width: 1.0;"/>
        <path d="M2630.12,103.41 C2636.1,104.86 2642.14,106.1 2648,107 C2747.63,122.22 4367.21,89.77 4462,124 C4484.02,131.95 4504.42,148.66 4519.25,163.28 " fill="none" style="stroke: #A80036; stroke-width: 1.0; stroke-dasharray: 7.0,7.0;"/>
        <polygon fill="#A80036" points="4522.89,166.94,4519.3916,157.7334,4519.3688,163.3902,4513.7119,163.3674,4522.89,166.94" style="stroke: #A80036; stroke-width: 1.0;"/>
        <path d="M2443.62,107 C2452.15,119.55 2462.95,135.46 2472.81,149.97 " fill="none" style="stroke: #A80036; stroke-width: 1.0;"/>
        <polygon fill="none" points="2478.71,146.2,2484.16,166.68,2467.13,154.07,2478.71,146.2" style="stroke: #A80036; stroke-width: 1.0;"/>
        <path d="M2478.79,103.11 C2484.53,104.69 2490.35,106.04 2496,107 C2603.7,125.2 4359.25,86.94 4462,124 C4484.02,131.94 4504.43,148.65 4519.25,163.27 " fill="none" style="stroke: #A80036; stroke-width: 1.0; stroke-dasharray: 7.0,7.0;"/>
        <polygon fill="#A80036" points="4522.89,166.93,4519.3917,157.7234,4519.3688,163.3802,4513.712,163.3573,4522.89,166.93" style="stroke: #A80036; stroke-width: 1.0;"/>
        <path d="M2320.69,107 C2359.42,124.93 2412.91,149.69 2451.38,167.49 " fill="none" style="stroke: #A80036; stroke-width: 1.0;"/>
        <polygon fill="none" points="2454.49,161.22,2469.7,175.97,2448.61,173.93,2454.49,161.22" style="stroke: #A80036; stroke-width: 1.0;"/>
        <path d="M2342.11,104.01 C2348.12,105.2 2354.15,106.23 2360,107 C2417.89,114.6 4407.07,104.2 4462,124 C4484.02,131.94 4504.43,148.65 4519.25,163.27 " fill="none" style="stroke: #A80036; stroke-width: 1.0; stroke-dasharray: 7.0,7.0;"/>
        <polygon fill="#A80036" points="4522.89,166.93,4519.373,157.7305,4519.3616,163.3873,4513.7048,163.3759,4522.89,166.93" style="stroke: #A80036; stroke-width: 1.0;"/>
        <path d="M2164.58,104.94 C2249.72,126.53 2379.69,159.49 2450.24,177.38 " fill="none" style="stroke: #A80036; stroke-width: 1.0;"/>
        <polygon fill="none" points="2452.04,170.62,2469.7,182.32,2448.59,184.19,2452.04,170.62" style="stroke: #A80036; stroke-width: 1.0;"/>
        <path d="M2164.7,104.49 C2170.53,105.48 2176.34,106.34 2182,107 C2244.9,114.38 4402.41,102.55 4462,124 C4484.03,131.93 4504.43,148.64 4519.25,163.26 " fill="none" style="stroke: #A80036; stroke-width: 1.0; stroke-dasharray: 7.0,7.0;"/>
        <polygon fill="#A80036" points="4522.9,166.93,4519.4017,157.7234,4519.3788,163.3802,4513.722,163.3573,4522.9,166.93" style="stroke: #A80036; stroke-width: 1.0;"/>
        <path d="M4445.74,87.8 C4482.74,93.12 4547.46,104.42 4600,124 C4628.17,134.5 4657.83,150.58 4680.73,164.25 " fill="none" style="stroke: #A80036; stroke-width: 1.0; stroke-dasharray: 7.0,7.0;"/>
        <polygon fill="#A80036" points="4685.22,166.95,4679.5605,158.8896,4680.9325,164.3775,4675.4446,165.7495,4685.22,166.95" style="stroke: #A80036; stroke-width: 1.0;"/>
        <path d="M4445.71,84.7 C4526.86,86.98 4750.67,95.72 4818,124 C4838.96,132.8 4858.6,149.16 4873.05,163.38 " fill="none" style="stroke: #A80036; stroke-width: 1.0; stroke-dasharray: 7.0,7.0;"/>
        <polygon fill="#A80036" points="4876.61,166.95,4873.093,157.7505,4873.0816,163.4073,4867.4248,163.3959,4876.61,166.95" style="stroke: #A80036; stroke-width: 1.0;"/>
        <path d="M1964.66,103.74 C1970.52,104.87 1976.34,105.97 1982,107 C2153.07,138.26 2357.12,169.06 2449.79,182.7 " fill="none" style="stroke: #A80036; stroke-width: 1.0;"/>
        <polygon fill="none" points="2451.08,175.81,2469.85,185.64,2449.05,189.67,2451.08,175.81" style="stroke: #A80036; stroke-width: 1.0;"/>
        <path d="M1964.51,104.76 C1970.41,105.64 1976.27,106.4 1982,107 C2050.51,114.2 4397.18,100.68 4462,124 C4484.03,131.92 4504.43,148.63 4519.25,163.26 " fill="none" style="stroke: #A80036; stroke-width: 1.0; stroke-dasharray: 7.0,7.0;"/>
        <polygon fill="#A80036" points="4522.9,166.92,4519.383,157.7205,4519.3716,163.3773,4513.7148,163.3659,4522.9,166.92" style="stroke: #A80036; stroke-width: 1.0;"/>
        <path d="M1740.63,103.54 C1746.49,104.81 1752.33,105.98 1758,107 C2015.91,153.45 2329.22,178.3 2449.58,186.69 " fill="none" style="stroke: #A80036; stroke-width: 1.0;"/>
        <polygon fill="none" points="2450.28,179.73,2469.75,188.07,2449.32,193.69,2450.28,179.73" style="stroke: #A80036; stroke-width: 1.0;"/>
        <path d="M1740.53,104.21 C1746.41,105.32 1752.28,106.28 1758,107 C1832.52,116.41 4391.31,98.6 4462,124 C4484.03,131.92 4504.44,148.63 4519.26,163.25 " fill="none" style="stroke: #A80036; stroke-width: 1.0; stroke-dasharray: 7.0,7.0;"/>
        <polygon fill="#A80036" points="4522.9,166.92,4519.4016,157.7134,4519.3788,163.3702,4513.7219,163.3474,4522.9,166.92" style="stroke: #A80036; stroke-width: 1.0;"/>
        <path d="M1556.1,103.93 C1562.14,105.06 1568.15,106.1 1574,107 C1905.97,158.37 2310.17,181.07 2449.77,187.77 " fill="none" style="stroke: #A80036; stroke-width: 1.0;"/>
        <polygon fill="none" points="2450.2,180.78,2469.85,188.71,2449.55,194.76,2450.2,180.78" style="stroke: #A80036; stroke-width: 1.0;"/>
        <path d="M1556.02,104.5 C1562.08,105.49 1568.12,106.34 1574,107 C1653.72,115.95 4386.5,96.88 4462,124 C4484.03,131.91 4504.44,148.62 4519.26,163.25 " fill="none" style="stroke: #A80036; stroke-width: 1.0; stroke-dasharray: 7.0,7.0;"/>
        <polygon fill="#A80036" points="4522.9,166.91,4519.4016,157.7034,4519.3788,163.3602,4513.7219,163.3374,4522.9,166.91" style="stroke: #A80036; stroke-width: 1.0;"/>
        <path d="M1349.23,102.85 C1354.84,104.46 1360.5,105.89 1366,107 C1578.16,149.92 2259.04,180.22 2449.86,188.02 " fill="none" style="stroke: #A80036; stroke-width: 1.0;"/>
        <polygon fill="none" points="2450.23,181.03,2469.93,188.83,2449.66,195.02,2450.23,181.03" style="stroke: #A80036; stroke-width: 1.0;"/>
        <path d="M1349.16,103.23 C1354.78,104.76 1360.47,106.07 1366,107 C1450.82,121.2 4381.05,94.95 4462,124 C4484.04,131.91 4504.44,148.62 4519.26,163.24 " fill="none" style="stroke: #A80036; stroke-width: 1.0; stroke-dasharray: 7.0,7.0;"/>
        <polygon fill="#A80036" points="4522.9,166.91,4519.383,157.7105,4519.3716,163.3673,4513.7148,163.3559,4522.9,166.91" style="stroke: #A80036; stroke-width: 1.0;"/>
        <path d="M1212.11,100.99 C1217.6,103.38 1223.37,105.53 1229,107 C1465.85,169 2243.89,185.84 2449.69,189.26 " fill="none" style="stroke: #A80036; stroke-width: 1.0;"/>
        <polygon fill="none" points="2449.97,182.26,2469.85,189.58,2449.74,196.26,2449.97,182.26" style="stroke: #A80036; stroke-width: 1.0;"/>
        <path d="M1212.04,101.28 C1217.54,103.64 1223.33,105.7 1229,107 C1316.52,127.13 4377.47,93.67 4462,124 C4484.04,131.91 4504.44,148.62 4519.26,163.24 " fill="none" style="stroke: #A80036; stroke-width: 1.0; stroke-dasharray: 7.0,7.0;"/>
        <polygon fill="#A80036" points="4522.9,166.91,4519.383,157.7105,4519.3716,163.3673,4513.7148,163.3559,4522.9,166.91" style="stroke: #A80036; stroke-width: 1.0;"/>
        <path d="M1115.02,103.5 C1120.73,104.85 1126.45,106.04 1132,107 C1393.01,151.88 2234.53,181.47 2449.58,188.42 " fill="none" style="stroke: #A80036; stroke-width: 1.0;"/>
        <polygon fill="none" points="2449.98,181.43,2469.74,189.07,2449.53,195.42,2449.98,181.43" style="stroke: #A80036; stroke-width: 1.0;"/>
        <path d="M1115.41,103.93 C1120.98,105.16 1126.56,106.22 1132,107 C1223.56,120.14 4374.93,92.77 4462,124 C4484.04,131.9 4504.44,148.61 4519.26,163.24 " fill="none" style="stroke: #A80036; stroke-width: 1.0; stroke-dasharray: 7.0,7.0;"/>
        <polygon fill="#A80036" points="4522.9,166.91,4519.383,157.7105,4519.3716,163.3673,4513.7148,163.3559,4522.9,166.91" style="stroke: #A80036; stroke-width: 1.0;"/>
        <path d="M954.2,104.37 C959.87,105.36 965.5,106.25 971,107 C1548,185.92 2257.13,190.55 2449.74,190.24 " fill="none" style="stroke: #A80036; stroke-width: 1.0;"/>
        <polygon fill="none" points="2449.89,183.24,2469.91,190.19,2449.93,197.24,2449.89,183.24" style="stroke: #A80036; stroke-width: 1.0;"/>
        <path d="M954.16,104.69 C959.84,105.6 965.49,106.38 971,107 C1019.19,112.38 4416.36,107.63 4462,124 C4484.04,131.9 4504.44,148.61 4519.26,163.24 " fill="none" style="stroke: #A80036; stroke-width: 1.0; stroke-dasharray: 7.0,7.0;"/>
        <polygon fill="#A80036" points="4522.9,166.91,4519.4017,157.7034,4519.3788,163.3602,4513.722,163.3373,4522.9,166.91" style="stroke: #A80036; stroke-width: 1.0;"/>
        <path d="M744.71,102.16 C750.43,104.09 756.3,105.79 762,107 C1096.67,178.23 2200.01,188.39 2449.54,189.79 " fill="none" style="stroke: #A80036; stroke-width: 1.0;"/>
        <polygon fill="none" points="2449.79,182.79,2469.75,189.89,2449.72,196.79,2449.79,182.79" style="stroke: #A80036; stroke-width: 1.0;"/>
        <path d="M744.66,102.39 C750.39,104.29 756.28,105.91 762,107 C862.96,126.22 4365.25,89.32 4462,124 C4484.04,131.9 4504.44,148.61 4519.26,163.24 " fill="none" style="stroke: #A80036; stroke-width: 1.0; stroke-dasharray: 7.0,7.0;"/>
        <polygon fill="#A80036" points="4522.9,166.9,4519.383,157.7005,4519.3716,163.3573,4513.7148,163.3459,4522.9,166.9" style="stroke: #A80036; stroke-width: 1.0;"/>
        <path d="M626.7,102.8 C632.47,104.46 638.32,105.92 644,107 C1004.44,175.46 2189.95,187.79 2449.5,189.69 " fill="none" style="stroke: #A80036; stroke-width: 1.0;"/>
        <polygon fill="none" points="2449.84,182.69,2469.79,189.83,2449.74,196.69,2449.84,182.69" style="stroke: #A80036; stroke-width: 1.0;"/>
        <path d="M626.66,103.03 C632.44,104.65 638.3,106.04 644,107 C748.57,124.69 4362.16,88.22 4462,124 C4484.04,131.9 4504.44,148.61 4519.26,163.24 " fill="none" style="stroke: #A80036; stroke-width: 1.0; stroke-dasharray: 7.0,7.0;"/>
        <polygon fill="#A80036" points="4522.9,166.9,4519.383,157.7005,4519.3716,163.3573,4513.7148,163.3459,4522.9,166.9" style="stroke: #A80036; stroke-width: 1.0;"/>
        <path d="M4160.85,104.57 C4155.16,105.48 4149.51,106.3 4144,107 C3519.27,186.45 2751.91,190.62 2550.38,190.24 " fill="none" style="stroke: #A80036; stroke-width: 1.0;"/>
        <polygon fill="none" points="2550.12,197.24,2530.14,190.18,2550.16,183.24,2550.12,197.24" style="stroke: #A80036; stroke-width: 1.0;"/>
        <path d="M4351.23,103.52 C4357.24,104.71 4363.2,105.88 4369,107 C4410.26,114.97 4423.85,106.4 4462,124 C4482.65,133.53 4502.5,149.55 4517.38,163.43 " fill="none" style="stroke: #A80036; stroke-width: 1.0; stroke-dasharray: 7.0,7.0;"/>
        <polygon fill="#A80036" points="4521.06,166.9,4517.2665,157.811,4517.4261,163.4656,4511.7715,163.6252,4521.06,166.9" style="stroke: #A80036; stroke-width: 1.0;"/>
        <path d="M3975.92,103.99 C3970.22,105.13 3964.53,106.16 3959,107 C3411.59,190.24 2737.16,191.88 2550.13,190.55 " fill="none" style="stroke: #A80036; stroke-width: 1.0;"/>
        <polygon fill="none" points="2549.95,197.55,2530.01,190.38,2550.07,183.55,2549.95,197.55" style="stroke: #A80036; stroke-width: 1.0;"/>
        <path d="M4126.13,103.86 C4132.15,105.06 4138.16,106.13 4144,107 C4213.99,117.43 4395.98,98.5 4462,124 C4483.68,132.37 4503.95,148.9 4518.79,163.32 " fill="none" style="stroke: #A80036; stroke-width: 1.0; stroke-dasharray: 7.0,7.0;"/>
        <polygon fill="#A80036" points="4522.45,166.94,4518.8773,157.762,4518.9002,163.4188,4513.2434,163.4417,4522.45,166.94" style="stroke: #A80036; stroke-width: 1.0;"/>
        <path d="M3762.82,104.33 C3757.14,105.32 3751.5,106.22 3746,107 C3284.53,172.07 2719.5,186.39 2550.21,189.3 " fill="none" style="stroke: #A80036; stroke-width: 1.0;"/>
        <polygon fill="none" points="2550.17,196.3,2530.06,189.63,2549.95,182.31,2550.17,196.3" style="stroke: #A80036; stroke-width: 1.0;"/>
        <path d="M3941.13,104.4 C3947.16,105.39 3953.15,106.28 3959,107 C4014.5,113.85 4409.64,104.37 4462,124 C4483.76,132.16 4504.04,148.69 4518.85,163.16 " fill="none" style="stroke: #A80036; stroke-width: 1.0; stroke-dasharray: 7.0,7.0;"/>
        <polygon fill="#A80036" points="4522.5,166.79,4518.9459,157.6048,4518.9573,163.2616,4513.3005,163.273,4522.5,166.79" style="stroke: #A80036; stroke-width: 1.0;"/>
        <path d="M3575.77,103.74 C3569.78,104.96 3563.81,106.07 3558,107 C3173.51,168.71 2702.73,185.1 2550.23,188.94 " fill="none" style="stroke: #A80036; stroke-width: 1.0;"/>
        <polygon fill="none" points="2550.24,195.94,2530.08,189.42,2549.91,181.94,2550.24,195.94" style="stroke: #A80036; stroke-width: 1.0;"/>
        <path d="M3728.18,104.1 C3734.18,105.24 3740.17,106.23 3746,107 C3824.89,117.46 4387.35,96.43 4462,124 C4483.81,132.05 4504.08,148.58 4518.88,163.08 " fill="none" style="stroke: #A80036; stroke-width: 1.0; stroke-dasharray: 7.0,7.0;"/>
        <polygon fill="#A80036" points="4522.53,166.72,4519.013,157.5205,4519.0016,163.1773,4513.3448,163.1659,4522.53,166.72" style="stroke: #A80036; stroke-width: 1.0;"/>
        <path d="M3437.36,102.64 C3431.56,104.31 3425.69,105.81 3420,107 C3093.29,175.22 2689.76,187.38 2550.23,189.54 " fill="none" style="stroke: #A80036; stroke-width: 1.0;"/>
        <polygon fill="none" points="2550.25,196.54,2530.16,189.8,2550.06,182.54,2550.25,196.54" style="stroke: #A80036; stroke-width: 1.0;"/>
        <path d="M3540.55,102.84 C3546.7,104.52 3552.95,105.97 3559,107 C3657.94,123.79 4367.78,89.47 4462,124 C4483.82,132 4504.1,148.53 4518.9,163.04 " fill="none" style="stroke: #A80036; stroke-width: 1.0; stroke-dasharray: 7.0,7.0;"/>
        <polygon fill="#A80036" points="4522.54,166.68,4519.0045,157.4876,4519.0045,163.1445,4513.3476,163.1445,4522.54,166.68" style="stroke: #A80036; stroke-width: 1.0;"/>
        <path d="M3287.14,102.93 C3281.39,104.46 3275.6,105.85 3270,107 C3002.21,161.97 2674.09,181.98 2550.38,187.89 " fill="none" style="stroke: #A80036; stroke-width: 1.0;"/>
        <polygon fill="none" points="2550.34,194.89,2530.04,188.82,2549.7,180.91,2550.34,194.89" style="stroke: #A80036; stroke-width: 1.0;"/>
        <path d="M3402.76,103.47 C3408.54,104.89 3414.35,106.11 3420,107 C3477.19,116.05 4407.61,104.15 4462,124 C4483.99,132.03 4504.4,148.74 4519.23,163.33 " fill="none" style="stroke: #A80036; stroke-width: 1.0; stroke-dasharray: 7.0,7.0;"/>
        <polygon fill="#A80036" points="4522.87,166.99,4519.3345,157.7976,4519.3345,163.4545,4513.6776,163.4545,4522.87,166.99" style="stroke: #A80036; stroke-width: 1.0;"/>
        <path d="M3147.93,102.29 C3141.93,104.04 3135.86,105.66 3130,107 C2917.43,155.48 2657.59,178.57 2550.16,186.58 " fill="none" style="stroke: #A80036; stroke-width: 1.0;"/>
        <polygon fill="none" points="2550.65,193.57,2530.19,188.03,2549.64,179.6,2550.65,193.57" style="stroke: #A80036; stroke-width: 1.0;"/>
        <path d="M3252.32,103.08 C3258.22,104.66 3264.2,106.03 3270,107 C3335.32,117.93 4399.76,101.35 4462,124 C4484,132.01 4504.41,148.71 4519.23,163.32 " fill="none" style="stroke: #A80036; stroke-width: 1.0; stroke-dasharray: 7.0,7.0;"/>
        <polygon fill="#A80036" points="4522.88,166.98,4519.363,157.7805,4519.3516,163.4373,4513.6948,163.4259,4522.88,166.98" style="stroke: #A80036; stroke-width: 1.0;"/>
        <path d="M2999.24,102.46 C2993.45,104.1 2987.62,105.65 2982,107 C2826.19,144.46 2638.16,171.8 2550.09,183.58 " fill="none" style="stroke: #A80036; stroke-width: 1.0;"/>
        <polygon fill="none" points="2550.92,190.53,2530.17,186.2,2549.09,176.65,2550.92,190.53" style="stroke: #A80036; stroke-width: 1.0;"/>
        <path d="M3112.52,103.19 C3118.7,104.73 3124.94,106.05 3131,107 C3204.06,118.43 4392.49,98.76 4462,124 C4484.01,131.99 4504.41,148.7 4519.24,163.3 " fill="none" style="stroke: #A80036; stroke-width: 1.0; stroke-dasharray: 7.0,7.0;"/>
        <polygon fill="#A80036" points="4522.88,166.97,4519.363,157.7705,4519.3516,163.4273,4513.6948,163.4159,4522.88,166.97" style="stroke: #A80036; stroke-width: 1.0;"/>
        <path d="M2845.38,102.08 C2839.52,103.78 2833.65,105.44 2828,107 C2730.07,134 2614.75,162.4 2550.24,177.99 " fill="none" style="stroke: #A80036; stroke-width: 1.0;"/>
        <polygon fill="none" points="2551.49,184.89,2530.41,182.76,2548.22,171.28,2551.49,184.89" style="stroke: #A80036; stroke-width: 1.0;"/>
        <path d="M2964.74,103.6 C2970.53,104.97 2976.34,106.14 2982,107 C3063.29,119.36 4384.69,95.99 4462,124 C4484.01,131.97 4504.42,148.68 4519.24,163.29 " fill="none" style="stroke: #A80036; stroke-width: 1.0; stroke-dasharray: 7.0,7.0;"/>
        <polygon fill="#A80036" points="4522.89,166.96,4519.373,157.7605,4519.3616,163.4173,4513.7048,163.4059,4522.89,166.96" style="stroke: #A80036; stroke-width: 1.0;"/>
        <path d="M2686.36,107 C2645.45,125.22 2588.7,150.49 2548.6,168.35 " fill="none" style="stroke: #A80036; stroke-width: 1.0;"/>
        <polygon fill="none" points="2551.25,174.84,2530.13,176.58,2545.55,162.05,2551.25,174.84" style="stroke: #A80036; stroke-width: 1.0;"/>
        <path d="M2810.9,104.19 C2816.65,105.3 2822.4,106.27 2828,107 C2918.01,118.8 4376.63,93.12 4462,124 C4484.02,131.96 4504.42,148.67 4519.24,163.28 " fill="none" style="stroke: #A80036; stroke-width: 1.0; stroke-dasharray: 7.0,7.0;"/>
        <polygon fill="#A80036" points="4522.89,166.95,4519.373,157.7505,4519.3616,163.4073,4513.7048,163.3959,4522.89,166.95" style="stroke: #A80036; stroke-width: 1.0;"/>
        <!--
@startuml
abstract class soft252git.Page
annotation java.lang.Override
class java.io.FileNotFoundException
class java.util.Scanner
class soft252git.AccountVeiwer
class soft252git.Adminhome
class soft252git.Appointment
class soft252git.AppointmentMaker
class soft252git.AppointmentRequester
class soft252git.Data
class soft252git.DoctorAppointmentsVeiwer
class soft252git.DoctorHistoryVeiwer
class soft252git.DoctorPrescriptionWriter
class soft252git.Doctorhome
class soft252git.Feedback
class soft252git.History
class soft252git.Login
class soft252git.MedStockVeiwer
class soft252git.Medicine
class soft252git.MedicineRequestWindow
class soft252git.NewUser
class soft252git.NotesWriter
class soft252git.Pagemanager
class soft252git.PatientAppointmentsVeiwer
class soft252git.PatientHistoryVeiwer
class soft252git.PatientPrescriptionVeiwer
class soft252git.PatientRatingsVeiwer
class soft252git.Patienthome
class soft252git.Prescription
class soft252git.PrescriptionFill
class soft252git.Rating
class soft252git.RatingMaker
class soft252git.RatingsVeiwer
class soft252git.Request
class soft252git.SecretaryHome
class soft252git.Soft252Git
class soft252git.TerminationWindow
class soft252git.User
interface soft252git.ActionListener
soft252git.Page ..> java.lang.Override
soft252git.Page - -|> soft252git.ActionListener
soft252git.AccountVeiwer - -|> soft252git.Page
soft252git.AccountVeiwer ..> java.lang.Override
soft252git.Adminhome - -|> soft252git.Page
soft252git.Adminhome ..> java.lang.Override
soft252git.AppointmentMaker - -|> soft252git.Page
soft252git.AppointmentMaker ..> java.lang.Override
soft252git.AppointmentRequester - -|> soft252git.Page
soft252git.AppointmentRequester ..> java.lang.Override
soft252git.Data ..> java.io.FileNotFoundException
soft252git.Data ..> java.util.Scanner
soft252git.DoctorAppointmentsVeiwer - -|> soft252git.Page
soft252git.DoctorAppointmentsVeiwer ..> java.lang.Override
soft252git.DoctorHistoryVeiwer - -|> soft252git.Page
soft252git.DoctorHistoryVeiwer ..> java.lang.Override
soft252git.DoctorPrescriptionWriter - -|> soft252git.Page
soft252git.DoctorPrescriptionWriter ..> java.lang.Override
soft252git.Doctorhome - -|> soft252git.Page
soft252git.Doctorhome ..> java.lang.Override
soft252git.Login - -|> soft252git.Page
soft252git.Login ..> java.lang.Override
soft252git.MedStockVeiwer - -|> soft252git.Page
soft252git.MedStockVeiwer ..> java.lang.Override
soft252git.MedicineRequestWindow - -|> soft252git.Page
soft252git.MedicineRequestWindow ..> java.lang.Override
soft252git.NewUser - -|> soft252git.Page
soft252git.NewUser ..> java.lang.Override
soft252git.NotesWriter - -|> soft252git.Page
soft252git.NotesWriter ..> java.lang.Override
soft252git.PatientAppointmentsVeiwer - -|> soft252git.Page
soft252git.PatientAppointmentsVeiwer ..> java.lang.Override
soft252git.PatientHistoryVeiwer - -|> soft252git.Page
soft252git.PatientHistoryVeiwer ..> java.lang.Override
soft252git.PatientPrescriptionVeiwer - -|> soft252git.Page
soft252git.PatientPrescriptionVeiwer ..> java.lang.Override
soft252git.PatientRatingsVeiwer - -|> soft252git.Page
soft252git.PatientRatingsVeiwer ..> java.lang.Override
soft252git.Patienthome - -|> soft252git.Page
soft252git.Patienthome ..> java.lang.Override
soft252git.PrescriptionFill - -|> soft252git.Page
soft252git.PrescriptionFill ..> java.lang.Override
soft252git.RatingMaker - -|> soft252git.Page
soft252git.RatingMaker ..> java.lang.Override
soft252git.RatingsVeiwer - -|> soft252git.Page
soft252git.RatingsVeiwer ..> java.lang.Override
soft252git.SecretaryHome - -|> soft252git.Page
soft252git.SecretaryHome ..> java.lang.Override
soft252git.TerminationWindow - -|> soft252git.Page
soft252git.TerminationWindow ..> java.lang.Override
@enduml

PlantUML version 2017.11(Wed Apr 19 17:18:59 BST 2017)
(GPL source distribution)
Java Runtime: Java(TM) SE Runtime Environment
JVM: Java HotSpot(TM) 64-Bit Server VM
Java Version: 1.8.0_231-b11
Operating System: Mac OS X
OS Version: 10.14.6
Default Encoding: UTF-8
Language: en
Country: GB
-->
    </g>
</svg>
